<?xml version="1.0" standalone="no"?>
<!DOCTYPE svg PUBLIC "-//W3C//DTD SVG 20010904//EN"
 "http://www.w3.org/TR/2001/REC-SVG-20010904/DTD/svg10.dtd">
<svg version="1.0" xmlns="http://www.w3.org/2000/svg"
 width="700.000000pt" height="700.000000pt" viewBox="0 0 700.000000 700.000000"
 preserveAspectRatio="xMidYMid meet">
<metadata>
Created by potrace 1.11, written by Peter Selinger 2001-2013
</metadata>
<g transform="translate(0.000000,700.000000) scale(0.100000,-0.100000)"
fill="#000000" stroke="none">
<path d="M2380 6868 c-181 -19 -351 -115 -468 -265 -46 -59 -101 -182 -119
-266 -28 -135 -5 -315 57 -437 75 -149 234 -287 379 -331 22 -7 41 -15 41 -19
0 -4 -15 -13 -32 -20 -237 -89 -523 -255 -738 -426 -115 -93 -318 -297 -416
-419 -109 -137 -273 -389 -261 -402 2 -2 62 -19 133 -38 71 -19 145 -39 164
-45 39 -11 209 -56 225 -60 24 -6 35 4 78 69 98 148 283 347 432 466 264 211
621 382 920 440 262 51 507 61 735 31 79 -11 129 -19 160 -26 19 -5 47 -11 61
-14 183 -32 503 -168 702 -299 50 -32 96 -61 104 -64 7 -3 96 79 208 190 l196
195 -43 34 c-207 167 -543 340 -834 431 -170 54 -392 98 -579 116 -90 9 -474
6 -550 -4 l-40 -6 25 23 c44 40 96 111 128 174 97 193 99 406 5 599 -125 255
-389 402 -673 373z"/>
<path d="M5123 4574 c-106 -107 -193 -197 -193 -200 0 -4 17 -27 38 -53 21
-25 59 -75 83 -111 291 -423 424 -917 386 -1430 -7 -90 -10 -112 -22 -185 -3
-16 -8 -45 -11 -64 -3 -18 -21 -88 -39 -155 -143 -522 -458 -956 -916 -1262
-104 -69 -307 -175 -393 -205 -21 -8 -41 -20 -43 -27 -5 -13 124 -512 136
-524 13 -14 318 121 471 209 64 36 205 130 275 182 180 134 440 392 535 530
13 20 32 45 42 55 10 11 18 23 18 27 0 4 6 14 13 21 37 39 133 200 205 342 44
90 57 107 66 95 44 -60 78 -95 126 -132 30 -23 57 -44 60 -47 23 -23 174 -80
255 -95 38 -7 170 -7 210 0 229 41 417 188 510 400 25 55 27 63 44 145 13 64
11 197 -3 261 -46 195 -182 372 -351 457 -174 87 -404 94 -572 17 -29 -13 -53
-21 -53 -17 2 46 -10 407 -14 437 -11 81 -18 127 -21 145 -2 9 -6 35 -9 56 -4
22 -16 77 -27 124 -11 47 -23 96 -25 109 -5 23 -71 218 -109 321 -73 199 -296
567 -437 722 l-43 47 -192 -195z"/>
<path d="M572 3673 c-30 -112 -57 -236 -67 -313 -3 -19 -7 -48 -10 -65 -19
-126 -25 -455 -11 -590 36 -341 131 -686 262 -947 19 -37 34 -69 34 -70 0 -2
-51 -3 -113 -4 -190 0 -323 -58 -462 -198 -130 -131 -193 -285 -193 -471 0
-262 142 -484 387 -605 51 -26 78 -34 176 -56 33 -8 157 -7 205 1 211 33 390
158 492 345 32 57 69 166 70 202 1 15 4 28 7 28 4 0 49 -36 101 -81 425 -364
961 -589 1535 -645 99 -10 389 -11 470 -1 33 4 86 10 118 13 31 4 59 9 61 13
1 3 -29 125 -69 271 -55 204 -75 264 -86 261 -8 -2 -104 -5 -214 -7 -183 -2
-229 2 -427 30 -135 20 -403 108 -558 183 -639 309 -1090 903 -1215 1598 -25
141 -30 206 -30 390 1 259 19 392 84 619 11 38 18 72 16 76 -2 4 -35 15 -72
25 -37 10 -149 40 -248 66 -99 27 -187 49 -196 49 -13 0 -24 -28 -47 -117z"/>
</g>
</svg>
